<svg width="358" height="401" viewBox="0 0 358 401" fill="none" xmlns="http://www.w3.org/2000/svg">
<g clip-path="url(#clip0_1_333)">
<rect width="375" height="3518" transform="translate(-17 -1207)" fill="white"/>
<path d="M65.6192 233.739H297.129V269.651H65.6192V233.739Z" fill="#7CE3E1"/>
<path d="M83.0575 158.541C101.665 171.43 91.0588 199.71 103.796 241.202C108.258 255.728 119.926 293.73 148.649 312.369C188.736 338.38 224.579 302.374 305.777 314.755C339.399 319.883 391.534 334.944 391.332 350.65C390.957 379.57 213.351 393.187 151.314 397.945C80.4541 403.385 64.4366 399.945 49.6569 390.162C-18.7723 344.849 -17.4462 191.973 35.9445 160.364C49.1655 152.535 70.024 149.51 83.0575 158.541Z" fill="#4761FF"/>
<path d="M308.759 74.8236H309.365C327.62 74.8236 342.473 59.9708 342.473 41.7138V41.1099C342.473 22.8528 327.62 8 309.365 8H308.759C290.502 8 275.651 22.8528 275.651 41.1099V41.7138C275.651 59.9708 290.502 74.8236 308.759 74.8236ZM309.365 9.36543C326.864 9.36543 341.1 23.6031 341.1 41.1024V41.7063C341.1 59.2056 326.864 73.4432 309.365 73.4432H308.759C291.26 73.4432 277.024 59.2056 277.024 41.7063V41.1024C277.024 23.6031 291.26 9.36543 308.759 9.36543H309.365Z" fill="black"/>
<path d="M304.441 61.5014L284.54 39.0656L291.856 33.6057L304.258 47.5845L326.127 21.675L333.584 26.9736L304.441 61.5014Z" fill="#7CE3E1"/>
<path d="M270.078 318.051C270.078 318.051 294.101 338.046 295.847 345.076C297.593 352.106 246.046 333.937 246.046 333.937L248.995 317.164L270.078 318.051Z" fill="black"/>
<path d="M293.628 344.789C294.996 344.789 295.423 344.543 295.692 344.386C295.771 344.342 295.841 344.282 295.897 344.211C295.954 344.139 295.995 344.057 296.02 343.97C296.044 343.882 296.051 343.791 296.04 343.7C296.028 343.61 295.999 343.523 295.954 343.444C295.909 343.365 295.848 343.296 295.776 343.241C295.704 343.185 295.622 343.145 295.534 343.122C295.446 343.099 295.354 343.093 295.264 343.106C295.174 343.118 295.087 343.148 295.009 343.195C292.03 344.907 263.583 336.79 246.35 331.272C246.176 331.216 245.987 331.232 245.825 331.316C245.663 331.4 245.54 331.545 245.485 331.719C245.429 331.893 245.445 332.082 245.529 332.244C245.613 332.407 245.758 332.529 245.932 332.585C246.045 332.62 257.294 336.216 268.931 339.46C284.682 343.846 290.952 344.789 293.628 344.789Z" fill="white"/>
<path d="M270.893 326.343C271.052 326.342 271.206 326.287 271.328 326.185L275.668 322.621C275.803 322.504 275.887 322.339 275.902 322.16C275.917 321.982 275.862 321.805 275.748 321.667C275.634 321.529 275.471 321.44 275.293 321.421C275.115 321.401 274.937 321.452 274.796 321.562L270.456 325.125C270.346 325.215 270.267 325.337 270.229 325.473C270.192 325.61 270.197 325.755 270.245 325.888C270.293 326.021 270.381 326.137 270.497 326.218C270.613 326.3 270.751 326.343 270.893 326.343Z" fill="white"/>
<path d="M275.632 330.728C275.8 330.728 275.962 330.667 276.088 330.555L280.623 326.542C280.755 326.42 280.833 326.251 280.842 326.072C280.851 325.893 280.789 325.718 280.67 325.583C280.552 325.449 280.385 325.367 280.206 325.354C280.027 325.341 279.851 325.398 279.714 325.514L275.178 329.528C275.074 329.62 275 329.742 274.967 329.877C274.934 330.012 274.942 330.154 274.991 330.284C275.041 330.414 275.128 330.527 275.243 330.606C275.357 330.685 275.493 330.728 275.632 330.728Z" fill="white"/>
<path fill-rule="evenodd" clip-rule="evenodd" d="M275.101 196.098C275.101 196.098 271.35 194.443 270.037 194.123C257.283 191.019 217.815 188.588 217.815 188.588L217.748 186.266L163.307 184.437L158.077 194.123C158.077 194.123 152.363 207.815 156.221 219.805C160.079 231.796 169.912 234.108 176.07 234.414C180.491 234.636 219.638 234.54 241.341 234.469L236.97 322.228H283.948L291.044 221.816C291.53 216.381 290.238 210.935 287.363 206.297C284.488 201.659 280.185 198.08 275.101 196.098Z" fill="#FFB64F"/>
<path fill-rule="evenodd" clip-rule="evenodd" d="M188.519 209.806L182.929 322.23H229.907L241.354 209.184L188.519 209.806Z" fill="#FFB64F"/>
<path d="M324.938 73.7452C322.854 72.0966 320.041 75.4107 319.814 75.6846C320.022 75.4314 322.323 72.5298 319.679 71.5958C318.263 71.095 316.472 71.4082 314.45 74.6342C311.657 79.0794 309.309 82.9881 309.309 82.9881C309.873 80.0229 310.745 77.1245 311.91 74.3398C312.994 71.7683 311.488 70.5567 310.759 70.4216C308.95 70.0878 307.679 70.5248 305.402 75.21C303.125 79.8953 302.123 82.7499 302.123 82.7499C302.123 82.7499 290.183 83.1907 286.181 84.8431C284.583 85.5033 283.527 88.4555 282.833 91.7603C282.083 95.3126 278.881 120.022 277.065 126.312C283.396 128.413 289.767 130.386 296.219 132.084C297.423 132.401 300.257 132.646 300.257 132.646C300.257 132.646 301.454 109.046 302.041 101.193C302.145 99.9622 302.574 98.7813 303.282 97.77C303.991 96.7586 304.954 95.9529 306.075 95.4346C311.139 93.0451 319.184 89.6709 319.731 89.0107C321.442 86.9475 323.858 82.5192 325.272 77.7571C326.077 75.0862 325.655 74.3098 324.938 73.7452Z" fill="#FFAE99"/>
<path d="M308.119 86.6944C308.266 86.6941 308.408 86.6472 308.526 86.5606C308.644 86.4739 308.732 86.352 308.776 86.2124L310.651 80.1524C310.705 79.9783 310.688 79.7899 310.603 79.6286C310.518 79.4673 310.372 79.3464 310.198 79.2924C310.024 79.2384 309.836 79.2558 309.675 79.3408C309.513 79.4257 309.392 79.5713 309.338 79.7454L307.463 85.8035C307.409 85.9774 307.426 86.1656 307.511 86.3266C307.596 86.4877 307.741 86.6086 307.915 86.6626C307.981 86.6841 308.05 86.6949 308.119 86.6944Z" fill="black"/>
<path fill-rule="evenodd" clip-rule="evenodd" d="M281.7 90.995L273.485 117.175C270.17 110.884 256.631 92.533 248.365 86.1372C237.875 78.0197 216.575 77.1944 216.575 77.1944C216.575 77.1944 198.215 76.7612 193.669 77.1194C186.044 77.7233 158.104 79.0325 147.529 96.6818C139.839 109.505 125.997 136.034 131.534 153.394C136.628 169.369 163.263 164.708 163.263 164.708C163.263 164.708 160.559 189.76 160.746 189.751C160.746 189.751 212.164 192.939 211.528 192.765C211.509 192.765 211.479 192.693 211.438 192.577L246.5 191.137L247.17 154.626C247.431 172.521 269.114 175.751 276.356 172.521C300.234 161.881 302.001 129.814 312.127 100.716L281.7 90.995Z" fill="black"/>
<path d="M214.16 193.294C214.336 193.293 214.505 193.226 214.632 193.105C214.76 192.984 214.836 192.818 214.846 192.643C218.252 127.843 212.271 81.7801 212.211 81.3225C212.199 81.2331 212.169 81.147 212.123 81.0691C212.078 80.9912 212.017 80.923 211.945 80.8685C211.873 80.814 211.791 80.7742 211.704 80.7514C211.617 80.7285 211.526 80.7231 211.436 80.7354C211.347 80.7477 211.261 80.7776 211.183 80.8231C211.105 80.8687 211.037 80.9292 210.982 81.0012C210.928 81.0731 210.888 81.155 210.865 81.2424C210.842 81.3297 210.837 81.4206 210.849 81.5101C210.909 81.9677 216.874 127.914 213.475 192.579C213.47 192.669 213.483 192.759 213.513 192.844C213.543 192.929 213.589 193.007 213.649 193.074C213.71 193.141 213.783 193.196 213.864 193.234C213.946 193.273 214.034 193.295 214.124 193.299L214.16 193.294Z" fill="white"/>
<path fill-rule="evenodd" clip-rule="evenodd" d="M221.718 120.371C221.718 121.764 222.538 122.893 223.551 122.893C224.564 122.893 225.383 121.768 225.383 120.371C225.383 118.973 224.562 117.848 223.551 117.848C222.54 117.848 221.718 118.977 221.718 120.371Z" fill="#FCF8F7"/>
<path d="M221.18 180.798C220.168 180.798 219.348 179.669 219.348 178.276C219.348 176.883 220.168 175.753 221.18 175.753C222.192 175.753 223.013 176.883 223.013 178.276C223.013 179.669 222.192 180.798 221.18 180.798Z" fill="#FCF8F7"/>
<path fill-rule="evenodd" clip-rule="evenodd" d="M221.18 147.78C221.18 149.174 222.001 150.303 223.012 150.303C224.023 150.303 224.845 149.178 224.845 147.78C224.845 146.383 224.023 145.258 223.012 145.258C222.001 145.258 221.18 146.389 221.18 147.78Z" fill="#FCF8F7"/>
<path d="M247.226 162.078C247.406 162.078 247.578 162.008 247.706 161.883C247.834 161.758 247.908 161.588 247.913 161.409C247.913 161.09 248.704 129.285 246.448 108.114C246.438 108.024 246.411 107.937 246.368 107.858C246.325 107.779 246.266 107.709 246.196 107.652C246.126 107.596 246.045 107.553 245.959 107.528C245.872 107.503 245.782 107.494 245.692 107.504C245.602 107.514 245.516 107.541 245.436 107.584C245.357 107.627 245.287 107.686 245.231 107.756C245.174 107.826 245.132 107.907 245.107 107.993C245.081 108.08 245.073 108.17 245.083 108.26C247.333 129.34 246.549 161.056 246.54 161.373C246.538 161.463 246.553 161.553 246.586 161.637C246.618 161.721 246.667 161.798 246.729 161.863C246.791 161.929 246.866 161.981 246.948 162.018C247.03 162.054 247.119 162.074 247.209 162.076L247.226 162.078Z" fill="white"/>
<path d="M267.164 133.777C267.302 133.777 267.436 133.736 267.55 133.659C267.663 133.581 267.751 133.472 267.802 133.344L274.123 117.428C274.19 117.258 274.187 117.069 274.115 116.902C274.042 116.735 273.906 116.603 273.737 116.536C273.568 116.469 273.379 116.472 273.211 116.544C273.044 116.616 272.912 116.752 272.845 116.921L266.53 132.836C266.462 133.004 266.463 133.192 266.533 133.36C266.604 133.527 266.737 133.66 266.905 133.729C266.988 133.761 267.076 133.777 267.164 133.777Z" fill="white"/>
<path d="M263.981 121.954C264.096 121.954 264.21 121.925 264.311 121.869L270.656 118.392C270.735 118.348 270.805 118.29 270.861 118.22C270.918 118.149 270.96 118.069 270.985 117.982C271.01 117.896 271.018 117.805 271.009 117.715C270.999 117.626 270.971 117.539 270.928 117.46C270.885 117.381 270.826 117.311 270.756 117.254C270.686 117.198 270.605 117.156 270.518 117.131C270.432 117.105 270.341 117.097 270.252 117.107C270.162 117.117 270.075 117.144 269.996 117.188L263.653 120.665C263.519 120.738 263.413 120.854 263.353 120.994C263.292 121.134 263.28 121.29 263.318 121.437C263.355 121.585 263.441 121.716 263.562 121.81C263.682 121.903 263.83 121.954 263.983 121.954H263.981Z" fill="white"/>
<path fill-rule="evenodd" clip-rule="evenodd" d="M190.568 145.102L191.814 130.729C193.389 125.924 197.037 121.269 199.273 119.817C204.048 116.711 220 117.833 220.115 120.38C220.229 122.927 205.284 125.375 205.284 125.375C205.284 125.375 217.783 130.251 217.877 132.652C217.971 135.053 213.728 135.156 213.728 135.156C213.728 135.156 215.701 138.022 214.34 139.927C212.978 141.833 211.937 141.779 211.937 141.779C211.937 141.779 214.884 144.433 211.417 145.125C207.951 145.817 200.785 143.393 200.785 143.393C200.785 143.393 196.801 153.39 189.229 153.39L190.568 145.102Z" fill="#FFAE99"/>
<path d="M168.515 132.688C168.675 132.687 168.83 132.63 168.952 132.527C169.075 132.425 169.158 132.282 169.187 132.125L173.836 108.708C173.862 108.533 173.82 108.355 173.718 108.211C173.616 108.067 173.463 107.967 173.29 107.933C173.116 107.898 172.937 107.932 172.787 108.026C172.638 108.12 172.531 108.269 172.488 108.44L167.84 131.857C167.805 132.036 167.842 132.221 167.943 132.373C168.044 132.524 168.202 132.629 168.38 132.665C168.425 132.676 168.47 132.684 168.515 132.688Z" fill="white"/>
<path d="M163.258 165.394H163.29L187.785 164.269C187.947 164.262 188.101 164.197 188.221 164.087C188.34 163.977 188.416 163.828 188.436 163.667L192.496 130.806C192.509 130.704 192.498 130.601 192.466 130.504C192.434 130.407 192.38 130.318 192.309 130.244C192.239 130.17 192.155 130.113 192.061 130.077C191.967 130.04 191.866 130.025 191.765 130.032L157.008 132.391C156.826 132.403 156.657 132.487 156.537 132.624C156.417 132.762 156.357 132.941 156.369 133.123C156.381 133.304 156.465 133.474 156.602 133.594C156.739 133.714 156.918 133.774 157.1 133.762L191.032 131.48L187.143 162.941L163.228 164.032C163.052 164.045 162.887 164.124 162.768 164.255C162.649 164.385 162.585 164.556 162.589 164.732C162.593 164.909 162.665 165.077 162.789 165.202C162.914 165.327 163.081 165.399 163.258 165.404V165.394Z" fill="white"/>
<path d="M238.855 235.164C239.029 235.164 239.196 235.098 239.323 234.979C239.45 234.86 239.528 234.698 239.54 234.525L240.435 221.865C241.453 210.48 234.718 199.614 224.055 195.458L224.008 195.441L211.733 191.647C211.558 191.593 211.37 191.611 211.209 191.696C211.048 191.781 210.927 191.927 210.873 192.101C210.82 192.275 210.837 192.463 210.923 192.624C211.008 192.785 211.153 192.906 211.327 192.96L223.579 196.75C228.507 198.698 232.676 202.183 235.466 206.689C238.256 211.194 239.519 216.48 239.065 221.76L238.171 234.433C238.158 234.614 238.218 234.793 238.338 234.931C238.457 235.068 238.625 235.153 238.807 235.166L238.855 235.164Z" fill="black"/>
<path d="M241.333 235.155C241.469 235.155 241.601 235.114 241.714 235.039C241.827 234.963 241.915 234.856 241.967 234.731L248.736 218.507C248.806 218.339 248.806 218.15 248.737 217.982C248.667 217.813 248.534 217.68 248.366 217.61C248.197 217.54 248.008 217.54 247.84 217.609C247.672 217.679 247.538 217.812 247.468 217.98L240.699 234.212C240.656 234.316 240.638 234.429 240.649 234.542C240.66 234.655 240.699 234.763 240.761 234.857C240.824 234.951 240.909 235.028 241.009 235.081C241.109 235.135 241.22 235.163 241.333 235.163V235.155Z" fill="black"/>
<path d="M186.853 235.155C187.035 235.155 187.209 235.083 187.338 234.954C187.467 234.825 187.539 234.651 187.539 234.469V218.656C187.539 218.473 187.467 218.299 187.338 218.17C187.209 218.041 187.035 217.969 186.853 217.969C186.671 217.969 186.496 218.041 186.367 218.17C186.238 218.299 186.166 218.473 186.166 218.656V234.469C186.166 234.651 186.238 234.825 186.367 234.954C186.496 235.083 186.671 235.155 186.853 235.155Z" fill="black"/>
<path d="M208.631 24.0289C208.105 25.4179 207.739 26.8619 207.539 28.3334C207.539 28.3334 208.867 25.9008 208.631 24.0289Z" fill="black"/>
<path d="M217.549 36.8128C216.986 35.663 216.468 34.684 216.058 33.9375C215.799 33.4641 215.396 33.0859 214.907 32.8584C214.418 32.6309 213.868 32.5661 213.34 32.6733C209.082 33.5436 199.475 36.5427 197.082 38.3151C194.406 40.2976 196.94 49.0266 199.862 54.2896C200.146 54.802 200.369 55.3459 200.528 55.9101L197.695 59.0817L192.553 73.6401L211.537 81.4182L213.767 79.4938L216.768 65.5806C227.307 60.2071 221.36 44.5852 217.549 36.8128Z" fill="#FFAE99"/>
<path d="M214.604 42.8184C214.699 42.8188 214.792 42.7994 214.879 42.7616C214.966 42.7239 215.044 42.6685 215.109 42.599C215.127 42.5784 216.275 41.3817 217.558 41.8281C217.644 41.8601 217.735 41.8747 217.826 41.871C217.918 41.8673 218.007 41.8454 218.09 41.8066C218.173 41.7677 218.247 41.7127 218.308 41.6448C218.369 41.5769 218.416 41.4975 218.447 41.4112C218.477 41.3248 218.489 41.2334 218.484 41.1421C218.478 41.0509 218.454 40.9617 218.413 40.8798C218.373 40.7979 218.316 40.725 218.247 40.6653C218.177 40.6056 218.097 40.5603 218.01 40.5321C215.866 39.7819 214.169 41.5918 214.099 41.6687C214.038 41.735 213.991 41.8127 213.96 41.8974C213.929 41.982 213.915 42.072 213.919 42.1621C213.922 42.2522 213.944 42.3407 213.982 42.4224C214.02 42.5042 214.074 42.5775 214.141 42.6384C214.267 42.7551 214.432 42.8195 214.604 42.8184Z" fill="black"/>
<path d="M205.573 47.1794C205.73 47.179 205.883 47.1248 206.005 47.0259C206.127 46.9269 206.212 46.7891 206.245 46.6354C206.297 46.4029 206.83 44.3847 209.621 44.833C209.71 44.8472 209.801 44.8436 209.888 44.8226C209.976 44.8017 210.059 44.7636 210.132 44.7107C210.205 44.6577 210.266 44.5909 210.314 44.5141C210.361 44.4372 210.392 44.3518 210.407 44.2628C210.421 44.1738 210.417 44.0828 210.396 43.9951C210.375 43.9074 210.337 43.8248 210.284 43.7518C210.231 43.6788 210.164 43.617 210.088 43.5698C210.011 43.5227 209.925 43.4911 209.836 43.4769C206.513 42.9518 205.159 45.1275 204.905 46.3522C204.869 46.5308 204.905 46.7166 205.005 46.8688C205.105 47.021 205.261 47.1273 205.44 47.1643C205.484 47.1736 205.528 47.1786 205.573 47.1794Z" fill="black"/>
<path d="M208.011 48.691C207.88 48.3441 207.726 47.9989 207.636 47.6388C207.496 47.3537 207.698 46.9749 207.989 46.8548C208.034 46.8389 208.082 46.8288 208.13 46.8248C208.22 46.7881 208.32 46.7834 208.413 46.8113C208.506 46.8393 208.587 46.8984 208.642 46.9786C208.642 46.9899 208.655 47.0049 208.662 47.018C208.704 47.063 208.741 47.1128 208.771 47.1662C208.934 47.5018 209.08 47.8455 209.208 48.1959C209.36 48.571 209.51 48.8542 209.345 49.2612C209.286 49.3892 209.181 49.4904 209.052 49.545C208.922 49.5995 208.776 49.6033 208.644 49.5557C208.235 49.3813 208.148 49.068 208.011 48.691Z" fill="black"/>
<path d="M217.228 45.4181C217.085 45.0739 216.96 44.7227 216.853 44.3659C216.712 44.0808 216.917 43.7019 217.206 43.5819C217.251 43.5659 217.298 43.5558 217.346 43.5519C217.436 43.5146 217.536 43.5094 217.629 43.537C217.722 43.5647 217.803 43.6236 217.858 43.7038L217.879 43.7451C217.922 43.7891 217.958 43.839 217.988 43.8932C218.152 44.2284 218.298 44.5721 218.425 44.9229C218.578 45.298 218.729 45.5813 218.562 45.9883C218.502 46.1159 218.398 46.2167 218.268 46.2709C218.138 46.3251 217.992 46.3286 217.86 46.2809C217.457 46.1083 217.371 45.7951 217.228 45.4181Z" fill="black"/>
<path d="M214.15 58.0727C215.418 58.0727 216.483 57.1705 216.964 56.5235C217.068 56.3779 217.112 56.1972 217.085 56.0199C217.058 55.8426 216.963 55.6828 216.82 55.5748C216.677 55.4667 216.497 55.4189 216.319 55.4416C216.141 55.4644 215.98 55.5558 215.868 55.6963C215.744 55.8576 214.63 57.2399 213.364 56.4578C212.528 55.942 212.762 54.7304 212.772 54.6798C212.804 54.5038 212.766 54.3221 212.667 54.1734C212.567 54.0248 212.413 53.921 212.238 53.884C212.063 53.8471 211.88 53.88 211.729 53.9758C211.578 54.0715 211.47 54.2225 211.429 54.3965C211.41 54.4866 210.979 56.5985 212.642 57.6263C213.092 57.9154 213.615 58.0703 214.15 58.0727Z" fill="black"/>
<path d="M218.985 54.1527C219.122 54.1527 219.255 54.112 219.369 54.0358C219.482 53.9597 219.57 53.8515 219.621 53.7251C219.743 53.4287 220.771 50.771 219.586 49.1824C218.982 48.374 217.973 48.2446 216.995 48.1039C215.889 47.952 214.842 47.8094 214.146 46.8491C212.916 45.1611 214.522 42.9104 214.538 42.8804C214.646 42.7334 214.691 42.5496 214.663 42.3695C214.635 42.1894 214.537 42.0278 214.39 41.9201C214.243 41.8124 214.059 41.7675 213.879 41.7953C213.699 41.8231 213.538 41.9212 213.43 42.0682C213.34 42.1939 211.215 45.1423 213.034 47.6556C214.075 49.0905 215.591 49.2987 216.812 49.4637C217.562 49.5669 218.226 49.6513 218.485 50.0039C219.1 50.8254 218.58 52.6297 218.35 53.2093C218.309 53.3131 218.294 53.4254 218.306 53.5363C218.318 53.6472 218.358 53.7535 218.42 53.8458C218.483 53.9382 218.567 54.0139 218.666 54.0664C218.764 54.1189 218.874 54.1466 218.985 54.1471V54.1527Z" fill="black"/>
<path d="M210.026 65.3275C209.841 65.2906 209.65 65.3047 209.472 65.3683C209.295 65.4319 209.138 65.5427 209.019 65.6887C208.9 65.8346 208.823 66.0103 208.796 66.1968C208.769 66.3834 208.794 66.5737 208.867 66.7473L214.604 75.5626L216.9 65.41L210.026 65.3275Z" fill="#EA8165"/>
<path d="M222.701 23.4867C222.112 17.6724 213.97 16.547 211.039 19.8593C209.93 21.1103 208.7 23.3085 208.631 24.0288C208.497 22.9766 207.88 22.1025 206.239 21.9356C201.697 21.4742 200.922 27.8006 200.922 27.8006C200.922 27.8006 189.123 26.5158 183.56 38.1464C179.204 47.2524 184.497 55.5219 195.31 65.8095C195.31 65.8095 199.581 63.3712 200.772 58.6972C201.123 57.3206 200.682 55.7657 199.862 54.2896C198.762 52.2689 197.855 50.1488 197.154 47.9576C198.887 47.2599 200.155 45.1011 200.155 42.5428C200.155 40.4796 199.335 38.6865 198.112 37.6981C201.509 35.9144 209.553 33.4499 213.346 32.6734C213.874 32.5661 214.424 32.631 214.913 32.8585C215.402 33.086 215.805 33.4641 216.064 33.9375C216.474 34.6878 216.992 35.6631 217.555 36.8128C218.928 34.8641 223.204 28.3764 222.701 23.4867Z" fill="#1A1A1A"/>
<path d="M202.186 57.6468C201.004 59.1473 198.435 59.2617 196.452 57.9075C194.47 56.5533 193.813 54.2389 194.995 52.7403C196.177 51.2417 198.746 51.1235 200.729 52.4777C202.711 53.8319 203.368 56.1463 202.186 57.6468Z" fill="#FFAE99"/>
<path d="M201.584 56.8535C201.666 56.8538 201.747 56.8392 201.824 56.8104C201.994 56.7464 202.132 56.6175 202.208 56.4519C202.283 56.2864 202.29 56.0976 202.227 55.927C201.04 52.7385 197.621 52.5509 195.981 52.8923C195.893 52.9108 195.809 52.9464 195.735 52.9973C195.66 53.0482 195.597 53.1132 195.547 53.1887C195.498 53.2642 195.464 53.3487 195.447 53.4373C195.43 53.526 195.431 53.617 195.45 53.7053C195.468 53.7936 195.504 53.8775 195.555 53.952C195.606 54.0265 195.671 54.0902 195.746 54.1396C195.822 54.189 195.906 54.223 195.995 54.2397C196.083 54.2565 196.175 54.2556 196.263 54.2371C196.42 54.2052 199.871 53.5375 200.941 56.4071C200.99 56.5381 201.078 56.651 201.193 56.7307C201.307 56.8105 201.444 56.8533 201.584 56.8535Z" fill="black"/>
<path fill-rule="evenodd" clip-rule="evenodd" d="M222.699 78.496L216.367 67.7639L211.046 79.4657L194.939 66.8599L185.863 77.8527L202.788 95.3839L211.53 81.4126L221.354 94.3035L222.699 78.496Z" fill="black"/>
<path d="M202.788 96.0705C202.817 96.0723 202.846 96.0723 202.874 96.0705C202.976 96.0581 203.073 96.0232 203.159 95.9684C203.245 95.9135 203.318 95.8401 203.371 95.7535L211.587 82.6243L220.809 94.7181C220.893 94.8285 221.008 94.9109 221.14 94.9544C221.271 94.998 221.413 95.0006 221.546 94.962C221.679 94.9235 221.798 94.8455 221.886 94.7383C221.974 94.6312 222.027 94.4999 222.039 94.3618L223.384 78.9819C223.394 78.891 223.386 78.799 223.36 78.7112C223.334 78.6235 223.291 78.5419 223.233 78.4711C223.175 78.4003 223.103 78.3418 223.022 78.2991C222.942 78.2564 222.853 78.2302 222.762 78.2222C222.671 78.2142 222.579 78.2245 222.492 78.2525C222.405 78.2805 222.324 78.3256 222.255 78.3852C222.185 78.4448 222.128 78.5177 222.088 78.5995C222.047 78.6814 222.023 78.7706 222.017 78.8619L220.826 92.4749L212.076 80.9944C212.009 80.9063 211.921 80.8358 211.821 80.7889C211.721 80.7421 211.61 80.7203 211.5 80.7255C211.389 80.7306 211.281 80.7626 211.186 80.8186C211.09 80.8746 211.009 80.9529 210.951 81.0469L202.655 94.3036L187.328 79.6609C187.263 79.5942 187.186 79.5411 187.101 79.505C187.016 79.4688 186.924 79.4503 186.832 79.4505C186.739 79.4507 186.647 79.4696 186.562 79.5061C186.477 79.5426 186.4 79.596 186.336 79.6629C186.273 79.7299 186.223 79.8091 186.19 79.8958C186.158 79.9825 186.143 80.0749 186.147 80.1674C186.151 80.2599 186.174 80.3506 186.214 80.4341C186.254 80.5175 186.311 80.592 186.38 80.6531L202.323 95.8791C202.448 95.9995 202.614 96.0678 202.788 96.0705Z" fill="black"/>
<path d="M207.074 125.99C207.236 125.99 207.393 125.933 207.517 125.829C207.641 125.725 207.724 125.58 207.752 125.42C207.779 125.261 207.75 125.096 207.668 124.957C207.586 124.817 207.457 124.71 207.304 124.656L202.675 123.008C202.504 122.946 202.315 122.956 202.15 123.034C201.986 123.112 201.859 123.252 201.798 123.424C201.737 123.596 201.746 123.784 201.824 123.949C201.902 124.114 202.042 124.241 202.214 124.302L206.843 125.95C206.917 125.976 206.995 125.989 207.074 125.99Z" fill="black"/>
<path d="M215.032 136.418C215.189 136.417 215.34 136.362 215.462 136.263C215.583 136.164 215.667 136.026 215.699 135.873C215.731 135.719 215.71 135.56 215.639 135.42C215.567 135.28 215.451 135.169 215.308 135.105L202.856 129.64C202.689 129.567 202.5 129.563 202.33 129.629C202.16 129.695 202.024 129.826 201.951 129.993C201.877 130.16 201.874 130.349 201.94 130.519C202.006 130.689 202.137 130.825 202.304 130.898L214.764 136.356C214.848 136.395 214.939 136.416 215.032 136.418Z" fill="black"/>
<path d="M212.721 142.836C212.88 142.839 213.034 142.787 213.158 142.689C213.282 142.592 213.369 142.454 213.403 142.299C213.438 142.145 213.418 141.983 213.347 141.842C213.276 141.701 213.158 141.588 213.014 141.523L201.834 136.296C201.752 136.256 201.663 136.233 201.572 136.228C201.481 136.222 201.389 136.235 201.304 136.266C201.218 136.296 201.139 136.343 201.071 136.404C201.004 136.466 200.949 136.54 200.91 136.622C200.872 136.705 200.85 136.794 200.846 136.885C200.843 136.976 200.857 137.067 200.889 137.153C200.921 137.238 200.969 137.316 201.032 137.383C201.094 137.449 201.169 137.503 201.252 137.54L212.431 142.767C212.521 142.812 212.62 142.835 212.721 142.836Z" fill="black"/>
<path d="M314.129 88.8756C314.261 88.8759 314.391 88.8378 314.502 88.7659C314.613 88.694 314.701 88.5914 314.755 88.4705C315.17 87.5515 321.361 74.94 321.423 74.8143C321.504 74.6509 321.516 74.4623 321.457 74.2899C321.398 74.1176 321.273 73.9756 321.11 73.8953C320.947 73.8149 320.758 73.8028 320.586 73.8615C320.413 73.9203 320.271 74.0451 320.191 74.2085C319.936 74.728 313.926 86.9625 313.504 87.9003C313.457 88.0047 313.437 88.1193 313.445 88.2337C313.453 88.348 313.49 88.4584 313.553 88.5547C313.615 88.6511 313.7 88.7303 313.801 88.785C313.902 88.8398 314.014 88.8683 314.129 88.8681V88.8756Z" fill="black"/>
<path d="M319.585 90.6067C319.715 90.6068 319.842 90.5701 319.952 90.5007C320.062 90.4313 320.15 90.3321 320.205 90.2147L326.414 77.1231C326.492 76.9584 326.501 76.7695 326.44 76.5978C326.379 76.4262 326.252 76.2859 326.087 76.2078C325.923 76.1297 325.734 76.1202 325.562 76.1814C325.39 76.2426 325.25 76.3695 325.172 76.5341L318.966 89.6258C318.927 89.7073 318.905 89.7956 318.9 89.8858C318.896 89.9759 318.909 90.0661 318.939 90.1511C318.969 90.2361 319.016 90.3143 319.077 90.3812C319.137 90.4481 319.21 90.5025 319.292 90.5411C319.383 90.5847 319.483 90.6072 319.585 90.6067Z" fill="black"/>
<path d="M202.788 96.0704H202.861C202.965 96.0595 203.064 96.0251 203.153 95.9699C203.241 95.9146 203.316 95.84 203.371 95.7516L211.586 82.6224L220.809 94.7181C220.892 94.8285 221.008 94.9109 221.139 94.9544C221.271 94.998 221.413 95.0006 221.546 94.962C221.679 94.9235 221.798 94.8455 221.886 94.7383C221.974 94.6312 222.027 94.4999 222.039 94.3618L223.447 77.7984C223.458 77.7071 223.45 77.6145 223.425 77.5262C223.399 77.4379 223.356 77.3557 223.297 77.2844C223.239 77.2132 223.167 77.1543 223.086 77.1114C223.005 77.0685 222.916 77.0424 222.824 77.0346C222.732 77.0268 222.64 77.0375 222.552 77.066C222.465 77.0946 222.384 77.1405 222.315 77.2009C222.246 77.2613 222.189 77.335 222.149 77.4177C222.108 77.5003 222.085 77.5903 222.08 77.6821L220.822 92.4674L212.076 80.9907C212.009 80.9025 211.921 80.832 211.821 80.7852C211.72 80.7383 211.61 80.7166 211.499 80.7217C211.389 80.7269 211.281 80.7588 211.185 80.8148C211.09 80.8708 211.009 80.9492 210.95 81.0432L202.673 94.2699L186.356 77.3708C186.229 77.2413 186.056 77.1672 185.875 77.1645C185.694 77.1619 185.519 77.231 185.389 77.3567C185.258 77.4824 185.183 77.6546 185.179 77.8357C185.175 78.0168 185.243 78.1922 185.367 78.3236L202.293 95.8547C202.356 95.9223 202.433 95.9763 202.518 96.0133C202.603 96.0504 202.695 96.0698 202.788 96.0704Z" fill="white"/>
</g>
<defs>
<clipPath id="clip0_1_333">
<rect width="375" height="3518" fill="white" transform="translate(-17 -1207)"/>
</clipPath>
</defs>
</svg>
